<?xml version="1.0" encoding="UTF-8" standalone="no"?>
<!DOCTYPE svg PUBLIC "-//W3C//DTD SVG 1.1//EN"
"http://www.w3.org/Graphics/SVG/1.1/DTD/svg11.dtd">

<svg x="0" y="0" width="606" height="152" viewBox="0 0 606 152" version="1.1" xmlns="http://www.w3.org/2000/svg" xmlns:xlink="http://www.w3.org/1999/xlink"
style="display: block;margin-left: auto;margin-right: auto;">
<defs>

<style type="text/css"><![CDATA[

.g0_1{
fill: #3F5C67;
}
.g1_1{
fill: #32A8B3;
}

]]></style>

</defs>
<path d="M186.9,79.5V32.8h11.5V69.2H218V79.5Z" class="g0_1" />
<path d="M224.7,79.5V32.8h31.7V43H236.1v7.8h17.3V61H236.1v8.2h20.3V79.5Z" class="g0_1" />
<path d="M285.3,44.7c-.8,-1.1,-2.5,-2.1,-4.6,-2.1c-2.1,0,-3.7,1,-4.6,2.1c-1,1.3,-1.7,2.9,-1.7,11.4c0,8.5,.7,10.1,1.7,11.4c.9,1.1,2.5,2.1,4.6,2.1c2.1,0,3.8,-1,4.6,-2.1c1.1,-1.3,1.7,-2.9,1.7,-11.4c0,-8.5,-.6,-10.1,-1.7,-11.4m8.5,29.9c-3.4,3.4,-7.4,5.2,-13.1,5.2c-5.7,0,-9.6,-1.8,-13,-5.2C262.8,69.7,263,63.1,263,56.1c0,-7,-.2,-13.5,4.7,-18.4c3.4,-3.5,7.3,-5.3,13,-5.3c5.7,0,9.7,1.8,13.1,5.3c4.9,4.9,4.7,11.4,4.7,18.4c0,7,.2,13.6,-4.7,18.5Z" class="g0_1" />
<path d="M337.7,61H330v8.2h7.7c3.1,0,4.2,-2.2,4.2,-4.2c0,-1.9,-1.1,-4,-4.2,-4m-.6,-17.9H330v7.6h7.1c3.2,0,4.1,-2,4.1,-3.8c0,-1.8,-.9,-3.8,-4.1,-3.8m1.7,36.4H318.5V32.8h19.3c9.7,0,14.9,5.4,14.9,13.5c0,5.3,-3.7,8.3,-5.1,9.2c1.9,1.2,5.8,3.6,5.8,10.2c0,8.9,-6.3,13.8,-14.6,13.8Z" class="g0_1" />
<path d="M382.1,44.7c-.8,-1.1,-2.5,-2.1,-4.6,-2.1c-2.1,0,-3.7,1,-4.6,2.1c-1,1.3,-1.7,2.9,-1.7,11.4c0,8.5,.7,10.1,1.7,11.4c.9,1.1,2.5,2.1,4.6,2.1c2.1,0,3.8,-1,4.6,-2.1c1.1,-1.3,1.7,-2.9,1.7,-11.4c0,-8.5,-.6,-10.1,-1.7,-11.4m8.5,29.9c-3.4,3.4,-7.4,5.2,-13.1,5.2c-5.7,0,-9.6,-1.8,-13,-5.2c-4.9,-4.9,-4.7,-11.5,-4.7,-18.5c0,-7,-.2,-13.5,4.7,-18.4c3.4,-3.5,7.3,-5.3,13,-5.3c5.7,0,9.7,1.8,13.1,5.3c4.9,4.9,4.7,11.4,4.7,18.4c0,7,.2,13.6,-4.7,18.5Z" class="g0_1" />
<path d="M424,45.6C422.9,44.1,421.3,43,418.5,43h-5.1V69.2h5.1c2.8,0,4.4,-1,5.5,-2.6c.9,-1.3,1.2,-2.5,1.2,-10.5c0,-7.8,-.3,-9.1,-1.2,-10.5m7.8,29.3c-3.2,3.2,-7.7,4.6,-12.6,4.6H402V32.8h17.2c4.9,0,9.4,1.4,12.6,4.6c5.5,5.4,4.9,11.4,4.9,18.7c0,7.4,.6,13.3,-4.9,18.8Z" class="g0_1" />
<path d="M469.8,79.5L454.8,56V79.5H443.4V32.8h10l14.9,23.5V32.8h11.5V79.5Z" class="g0_1" />
<path d="M508.2,50.5L504,62.9h8.1Zm9.1,29l-2.2,-7H500.8l-2.3,7h-12L503.4,32.8h8.9l17,46.7Z" class="g0_1" />
<path d="M553.9,43.1h-6.5v9.4h6.5c3.1,0,5,-2.3,5,-4.7c0,-2.4,-1.9,-4.7,-5,-4.7m5.6,36.4L551.3,62.1h-3.9V79.5H535.9V32.8h18.5c10.4,0,15.9,7.3,15.9,15c0,6.4,-3.9,10.4,-7.6,12.2l10.1,19.5Z" class="g0_1" />
<path d="M186.9,119.7V100.4h12.7v3.4h-8.9v4.5h7.6v3.3h-7.6v4.7h8.9v3.4Z" class="g1_1" />
<path d="M224.8,119.7V100.4h3.8v15.9h8.7v3.4Z" class="g1_1" />
<path d="M261.8,119.7V100.4h12.7v3.4h-9v4.5h7.6v3.3h-7.6v4.7h9v3.4Z" class="g1_1" />
<path d="M306,119.8c-2.1,0,-3.9,-.7,-5.2,-2.1c-2,-1.9,-1.9,-4.3,-1.9,-7.7c0,-3.3,-.1,-5.7,1.9,-7.6c1.3,-1.4,3.1,-2.1,5.2,-2.1c3.6,0,6.4,2,7.1,6h-3.8c-.4,-1.5,-1.4,-2.7,-3.3,-2.7c-1,0,-1.9,.4,-2.4,1c-.7,.8,-1,1.7,-1,5.4c0,3.7,.3,4.7,1,5.5c.5,.6,1.4,1,2.4,1c1.9,0,2.9,-1.2,3.3,-2.8h3.8c-.7,4.1,-3.6,6.1,-7.1,6.1Z" class="g1_1" />
<path d="M344.5,103.8v15.9h-3.7V103.8h-5.1v-3.4h13.9v3.4Z" class="g1_1" />
<path d="M381.3,103.8h-3.5v5.1h3.5c1.7,0,2.8,-1.1,2.8,-2.6c0,-1.5,-1.1,-2.5,-2.8,-2.5m2.9,15.9L380.5,112h-2.7v7.7H374V100.4h7.6c3.9,0,6.2,2.7,6.2,5.9c0,2.7,-1.6,4.4,-3.5,5.1l4.3,8.3Z" class="g1_1" />
<path d="M422,104.6c-.6,-.6,-1.4,-1,-2.4,-1c-1.1,0,-1.9,.4,-2.5,1c-.7,.8,-.9,1.7,-.9,5.4c0,3.7,.2,4.6,.9,5.4c.6,.7,1.4,1.1,2.5,1.1c1,0,1.8,-.4,2.4,-1.1c.7,-.8,.9,-1.7,.9,-5.4c0,-3.7,-.2,-4.6,-.9,-5.4m2.8,13.1c-1.4,1.4,-3,2.1,-5.2,2.1c-2.2,0,-3.9,-.7,-5.3,-2.1c-1.9,-1.9,-1.9,-4.3,-1.9,-7.7c0,-3.3,0,-5.7,1.9,-7.6c1.4,-1.4,3.1,-2.1,5.3,-2.1c2.2,0,3.8,.7,5.2,2.1c1.9,1.9,1.9,4.3,1.9,7.6c0,3.4,0,5.8,-1.9,7.7Z" class="g1_1" />
<path d="M463.3,119.7l-7.6,-11.8v11.8h-3.8V100.4h3.4l7.6,11.8V100.4h3.8v19.3Z" class="g1_1" />
<path d="M492.6,119.7h3.7V100.4h-3.7v19.3Z" class="g1_1" />
<path d="M528.6,119.8c-2.1,0,-3.8,-.7,-5.2,-2.1c-1.9,-1.9,-1.9,-4.3,-1.9,-7.7c0,-3.3,0,-5.7,1.9,-7.6c1.4,-1.4,3.1,-2.1,5.2,-2.1c3.6,0,6.5,2,7.1,6h-3.8c-.4,-1.5,-1.3,-2.7,-3.2,-2.7c-1.1,0,-1.9,.4,-2.4,1c-.8,.8,-1,1.7,-1,5.4c0,3.7,.2,4.7,1,5.5c.5,.6,1.3,1,2.4,1c1.9,0,2.8,-1.2,3.2,-2.8h3.8c-.6,4.1,-3.5,6.1,-7.1,6.1Z" class="g1_1" />
<path d="M565.7,119.8c-2.9,0,-5.2,-.6,-7.1,-2.5l2.5,-2.5c1.2,1.3,2.8,1.7,4.6,1.7c2.3,0,3.4,-.9,3.4,-2.4c0,-.7,-.1,-1.3,-.6,-1.6c-.3,-.4,-.8,-.6,-1.7,-.7l-2.3,-.3c-1.6,-.3,-2.9,-.8,-3.7,-1.6c-.9,-.9,-1.4,-2.2,-1.4,-3.8c0,-3.4,2.5,-5.8,6.7,-5.8c2.7,0,4.6,.6,6.2,2.2l-2.3,2.4c-1.3,-1.2,-2.7,-1.4,-4,-1.4c-2,0,-3,1.1,-3,2.5c0,.4,.2,1,.6,1.3c.4,.4,1,.7,1.8,.8l2.3,.3c1.7,.3,2.8,.7,3.6,1.5c1.1,1,1.5,2.4,1.5,4.1c0,3.7,-3.1,5.8,-7.1,5.8Z" class="g1_1" />
<path d="M115.8,68.2c3.2,1.6,5.8,4.3,7.4,7.4c7.7,15,-7.9,30.6,-22.8,22.9C97.2,96.9,94.5,94.3,92.9,91.1c-7.6,-14.9,8,-30.5,22.9,-22.9M108.1,112c19.8,0,34.9,-20.7,25.6,-41.4c-2.5,-5.8,-7.2,-10.5,-13,-13C101.8,49.3,83.5,60.8,80.2,77.7c-1.8,7.7,-4.8,11.1,-7.4,14.2c-9.6,11.6,-26.3,17.2,-43.4,9.9C21.2,98.4,14.8,91.7,11.5,83.5C1.2,57.4,20.2,32.6,44.9,32.6H152.6V23.1C152.6,10.6,142.4,.4,129.8,.4H23.7C11.1,.4,.9,10.6,.9,23.1V112H86.1Z" class="g1_1" />
<path d="M61.8,64.9C64.6,77.5,53.7,88.4,41.1,85.6C34.8,84.2,29.7,79.1,28.3,72.8C25.5,60.2,36.4,49.3,49,52.1c6.3,1.4,11.4,6.5,12.8,12.8m-45,7.5c1.6,13.2,12.6,23.7,25.8,24.8C57.2,98.4,69.8,88.8,72.8,75.3c0,0,.3,-1,.3,-1c1.3,-5.5,3.6,-9.6,7.1,-13.8c7.3,-8.8,18.6,-14.1,31.2,-13c17.8,1.6,32,16.4,32.9,34.3c1,20.7,-15.4,37.8,-35.8,38H.9v9.5C.9,141.8,11.1,152,23.7,152H129.8c12.6,0,22.8,-10.2,22.8,-22.7V40.4H45c-16.8,0,-30.3,14.7,-28.2,32Z" class="g1_1" />

</svg>
